<?xml version="1.0" encoding="UTF-8"?>
<!DOCTYPE svg PUBLIC "-//W3C//DTD SVG 1.1//EN" "http://www.w3.org/Graphics/SVG/1.1/DTD/svg11.dtd">
<svg version="1.1" xmlns="http://www.w3.org/2000/svg" xmlns:xlink="http://www.w3.org/1999/xlink" x="0" y="0" width="390" height="210" viewBox="0, 0, 390, 210">
  <g id="Layer_1">
    <g>
      <path d="M251.32,67.869 C251.32,94.501 229.73,116.091 203.098,116.091 C176.465,116.091 154.876,94.501 154.876,67.869 C154.876,41.237 176.465,19.647 203.098,19.647 C229.73,19.647 251.32,41.237 251.32,67.869 z" fill="#82BFDC"/>
      <path d="M156.298,67.869 C156.3,66.585 156.348,65.301 156.449,64.021 C156.499,63.4 156.56,62.779 156.633,62.16 C156.651,62.006 156.67,61.852 156.689,61.698 C156.691,61.682 156.719,61.464 156.698,61.624 C156.675,61.799 156.712,61.524 156.718,61.485 C156.761,61.179 156.807,60.874 156.855,60.569 C157.247,58.118 157.83,55.697 158.597,53.337 C158.968,52.193 159.383,51.063 159.839,49.951 C159.869,49.88 160.019,49.52 159.918,49.758 C159.977,49.62 160.036,49.482 160.096,49.345 C160.224,49.052 160.354,48.76 160.488,48.469 C160.737,47.927 160.996,47.39 161.265,46.858 C162.346,44.721 163.586,42.666 164.971,40.714 C165.325,40.214 165.689,39.722 166.061,39.237 C165.918,39.424 166.099,39.189 166.15,39.125 C166.241,39.009 166.332,38.893 166.425,38.778 C166.622,38.531 166.822,38.286 167.024,38.043 C167.779,37.136 168.567,36.257 169.386,35.408 C170.219,34.543 171.084,33.71 171.979,32.91 C172.419,32.517 172.866,32.132 173.32,31.755 C173.547,31.566 173.776,31.38 174.007,31.196 C174.122,31.103 174.238,31.012 174.354,30.921 C174.403,30.882 174.453,30.843 174.503,30.804 C174.688,30.66 174.243,31 174.566,30.756 C176.473,29.312 178.47,27.996 180.565,26.84 C181.627,26.255 182.711,25.709 183.814,25.206 C184.066,25.091 184.32,24.978 184.574,24.867 C184.711,24.807 184.849,24.748 184.986,24.69 C184.748,24.791 185.154,24.621 185.239,24.586 C185.795,24.359 186.355,24.142 186.918,23.936 C189.218,23.095 191.582,22.432 193.983,21.953 C194.607,21.828 195.234,21.716 195.863,21.616 C196.146,21.571 196.43,21.529 196.714,21.489 C196.753,21.483 197.028,21.446 196.853,21.469 C196.693,21.491 196.911,21.462 196.927,21.46 C197.103,21.439 197.279,21.416 197.455,21.396 C198.721,21.248 199.992,21.151 201.265,21.103 C203.804,21.009 206.35,21.11 208.873,21.411 C209.027,21.43 209.18,21.449 209.334,21.469 C209.503,21.49 209.31,21.465 209.285,21.462 C209.373,21.473 209.46,21.486 209.548,21.498 C209.853,21.541 210.159,21.588 210.463,21.637 C211.07,21.735 211.675,21.844 212.277,21.965 C213.494,22.21 214.7,22.502 215.894,22.84 C217.076,23.175 218.245,23.555 219.398,23.981 C219.961,24.188 220.521,24.406 221.075,24.635 C221.155,24.667 221.234,24.7 221.313,24.733 C221.29,24.724 221.117,24.65 221.268,24.715 C221.406,24.773 221.543,24.833 221.68,24.892 C221.954,25.012 222.227,25.134 222.498,25.259 C224.697,26.27 226.818,27.447 228.84,28.776 C229.828,29.426 230.792,30.112 231.73,30.833 C231.516,30.668 231.839,30.918 231.892,30.96 C232.008,31.051 232.123,31.143 232.238,31.235 C232.485,31.433 232.73,31.633 232.973,31.836 C233.425,32.214 233.872,32.6 234.31,32.994 C236.081,34.585 237.734,36.307 239.252,38.14 C239.44,38.367 239.627,38.596 239.811,38.827 C239.903,38.942 239.994,39.058 240.085,39.175 C240.124,39.224 240.163,39.274 240.202,39.324 C240.115,39.213 240.14,39.243 240.211,39.337 C240.581,39.825 240.945,40.317 241.298,40.817 C241.993,41.802 242.651,42.813 243.27,43.847 C243.881,44.867 244.454,45.909 244.988,46.971 C245.255,47.504 245.513,48.042 245.761,48.585 C245.885,48.857 246.007,49.13 246.126,49.404 C246.154,49.469 246.302,49.818 246.255,49.706 C246.195,49.562 246.277,49.758 246.283,49.773 C246.323,49.872 246.365,49.97 246.405,50.07 C247.324,52.327 248.071,54.655 248.636,57.027 C248.925,58.241 249.167,59.466 249.361,60.699 C249.406,60.982 249.447,61.266 249.487,61.55 C249.494,61.601 249.523,61.83 249.49,61.567 C249.498,61.632 249.507,61.698 249.515,61.764 C249.537,61.94 249.558,62.116 249.579,62.292 C249.65,62.912 249.709,63.533 249.757,64.154 C249.95,66.693 249.945,69.246 249.741,71.784 C249.689,72.427 249.625,73.069 249.547,73.71 C249.529,73.864 249.509,74.017 249.489,74.171 C249.521,73.925 249.481,74.234 249.469,74.319 C249.422,74.646 249.373,74.973 249.319,75.3 C249.119,76.53 248.871,77.754 248.575,78.965 C247.996,81.334 247.23,83.649 246.307,85.906 C246.283,85.965 246.258,86.024 246.233,86.084 C246.332,85.846 246.246,86.053 246.227,86.098 C246.176,86.216 246.126,86.334 246.074,86.451 C245.946,86.744 245.815,87.036 245.681,87.327 C245.422,87.888 245.153,88.444 244.873,88.994 C244.334,90.053 243.755,91.092 243.139,92.108 C242.515,93.139 241.851,94.146 241.151,95.127 C240.992,95.351 240.831,95.573 240.668,95.793 C240.58,95.912 240.491,96.031 240.402,96.148 C240.352,96.216 240.301,96.283 240.25,96.35 C240.234,96.371 240.076,96.577 240.168,96.457 C240.262,96.335 240.134,96.501 240.124,96.513 C240.072,96.58 240.02,96.646 239.968,96.712 C239.877,96.828 239.785,96.944 239.692,97.059 C239.494,97.305 239.293,97.55 239.09,97.792 C237.563,99.617 235.901,101.33 234.122,102.912 C233.681,103.304 233.233,103.688 232.778,104.063 C232.55,104.251 232.321,104.437 232.09,104.621 C231.991,104.7 231.892,104.778 231.792,104.856 C231.763,104.879 231.553,105.042 231.686,104.939 C231.806,104.847 231.6,105.005 231.579,105.021 C230.62,105.748 229.637,106.444 228.628,107.1 C226.616,108.408 224.507,109.565 222.323,110.558 C222.051,110.682 221.778,110.803 221.504,110.922 C221.441,110.949 221.06,111.11 221.313,111.004 C221.155,111.07 220.996,111.136 220.838,111.2 C220.281,111.426 219.721,111.641 219.156,111.846 C218.021,112.257 216.87,112.626 215.706,112.951 C214.511,113.284 213.302,113.571 212.084,113.811 C211.481,113.929 210.875,114.037 210.268,114.132 C209.962,114.18 209.657,114.225 209.351,114.267 C209.183,114.29 209.376,114.264 209.4,114.26 C209.312,114.272 209.224,114.283 209.137,114.294 C208.961,114.316 208.784,114.337 208.608,114.357 C206.083,114.644 203.535,114.732 200.995,114.623 C199.724,114.569 198.454,114.465 197.191,114.31 C197.059,114.294 196.927,114.277 196.796,114.26 C197.076,114.296 196.652,114.24 196.582,114.23 C196.255,114.183 195.928,114.133 195.602,114.08 C194.996,113.98 194.392,113.869 193.79,113.746 C191.371,113.253 188.99,112.572 186.677,111.712 C186.114,111.503 185.557,111.281 185.002,111.054 C184.987,111.048 184.791,110.966 184.935,111.026 C185.092,111.092 184.845,110.988 184.81,110.973 C184.692,110.922 184.574,110.871 184.457,110.82 C184.164,110.691 183.872,110.559 183.581,110.425 C182.481,109.916 181.401,109.365 180.342,108.774 C179.307,108.196 178.293,107.579 177.303,106.926 C176.791,106.589 176.286,106.242 175.788,105.886 C175.565,105.726 175.343,105.564 175.122,105.401 C175.004,105.313 174.885,105.224 174.768,105.135 C174.695,105.081 174.351,104.816 174.553,104.973 C172.673,103.513 170.9,101.914 169.254,100.193 C168.424,99.326 167.626,98.427 166.863,97.5 C166.675,97.272 166.49,97.043 166.306,96.812 C166.228,96.712 166.15,96.613 166.072,96.513 C166.042,96.475 165.907,96.3 166.061,96.501 C166.01,96.434 165.959,96.367 165.908,96.3 C165.55,95.829 165.201,95.352 164.861,94.869 C163.471,92.893 162.229,90.814 161.151,88.652 C160.885,88.118 160.628,87.58 160.382,87.036 C160.258,86.764 160.138,86.49 160.019,86.216 C159.987,86.14 159.87,85.862 159.962,86.084 C159.896,85.926 159.831,85.767 159.767,85.609 C159.306,84.474 158.889,83.321 158.517,82.155 C157.77,79.809 157.204,77.406 156.824,74.973 C156.777,74.668 156.732,74.362 156.69,74.056 C156.726,74.32 156.674,73.92 156.664,73.842 C156.645,73.688 156.627,73.533 156.609,73.379 C156.542,72.782 156.485,72.183 156.439,71.583 C156.345,70.347 156.3,69.108 156.298,67.869 C156.297,67.1 155.645,66.446 154.876,66.446 C154.105,66.446 153.452,67.097 153.453,67.869 C153.46,73.043 154.254,78.234 155.854,83.157 C157.397,87.909 159.654,92.44 162.551,96.512 C165.489,100.64 169.01,104.279 173.03,107.362 C176.993,110.401 181.414,112.802 186.102,114.523 C190.933,116.296 196.057,117.277 201.198,117.477 C206.393,117.678 211.647,117.059 216.65,115.641 C221.466,114.276 226.093,112.168 230.276,109.418 C234.427,106.688 238.185,103.348 241.344,99.512 C244.573,95.592 247.172,91.241 249.099,86.543 C251.046,81.801 252.199,76.759 252.596,71.65 C253.001,66.443 252.565,61.155 251.333,56.08 C250.15,51.201 248.197,46.486 245.596,42.194 C243.022,37.947 239.802,34.068 236.086,30.772 C232.371,27.477 228.172,24.716 223.643,22.67 C218.904,20.53 213.904,19.153 208.74,18.551 C203.534,17.944 198.234,18.195 193.098,19.235 C188.158,20.236 183.365,22.026 178.962,24.476 C174.621,26.893 170.629,29.984 167.199,33.578 C163.778,37.164 160.874,41.269 158.666,45.707 C156.407,50.248 154.828,55.123 154.061,60.139 C153.669,62.699 153.457,65.279 153.453,67.869 C153.452,68.637 154.108,69.291 154.876,69.291 C155.648,69.291 156.297,68.64 156.298,67.869 z" fill="#222021"/>
    </g>
    <g>
      <path d="M213.549,56.667 C213.549,61.424 209.692,65.28 204.936,65.28 C200.179,65.28 196.323,61.424 196.323,56.667 C196.323,51.91 200.179,48.054 204.936,48.054 C209.692,48.054 213.549,51.91 213.549,56.667 z" fill="#FFFFFE"/>
      <path d="M197.745,56.667 C197.747,56.27 197.773,55.875 197.826,55.482 L197.775,55.86 C197.88,55.119 198.077,54.398 198.365,53.707 L198.222,54.047 C198.434,53.547 198.69,53.067 198.992,52.615 C199.072,52.494 199.156,52.375 199.242,52.258 C199.306,52.173 199.47,51.992 199.171,52.348 C199.211,52.301 199.248,52.251 199.288,52.203 C199.465,51.987 199.654,51.78 199.851,51.583 C200.042,51.392 200.241,51.211 200.448,51.039 C200.484,51.009 200.572,50.908 200.617,50.902 C200.554,50.91 200.306,51.138 200.527,50.974 C200.635,50.893 200.745,50.816 200.857,50.74 C201.317,50.431 201.806,50.17 202.316,49.953 L201.976,50.096 C202.667,49.809 203.388,49.611 204.129,49.507 L203.751,49.557 C204.538,49.452 205.333,49.452 206.121,49.557 L205.742,49.507 C206.483,49.611 207.205,49.809 207.896,50.096 L207.556,49.953 C208.056,50.166 208.536,50.422 208.988,50.723 C209.109,50.803 209.228,50.887 209.345,50.974 C209.43,51.037 209.61,51.201 209.254,50.902 C209.302,50.942 209.352,50.98 209.4,51.019 C209.615,51.197 209.822,51.385 210.02,51.583 C210.21,51.773 210.392,51.972 210.564,52.179 C210.594,52.216 210.695,52.303 210.7,52.348 C210.693,52.285 210.465,52.037 210.629,52.258 C210.709,52.367 210.787,52.477 210.862,52.589 C211.171,53.049 211.433,53.537 211.65,54.047 L211.506,53.707 C211.794,54.398 211.991,55.119 212.096,55.86 L212.045,55.482 C212.151,56.27 212.151,57.065 212.045,57.852 L212.096,57.474 C211.991,58.215 211.794,58.936 211.506,59.627 L211.65,59.287 C211.437,59.787 211.181,60.267 210.88,60.719 C210.799,60.84 210.716,60.959 210.629,61.076 C210.566,61.161 210.402,61.342 210.7,60.986 C210.66,61.033 210.623,61.083 210.583,61.131 C210.406,61.347 210.218,61.554 210.02,61.752 C209.83,61.942 209.631,62.123 209.423,62.295 C209.387,62.325 209.299,62.427 209.254,62.432 C209.318,62.425 209.565,62.197 209.345,62.36 C209.236,62.441 209.126,62.519 209.014,62.594 C208.554,62.903 208.065,63.164 207.556,63.381 L207.896,63.238 C207.205,63.525 206.483,63.723 205.742,63.828 L206.121,63.777 C205.333,63.882 204.538,63.882 203.751,63.777 L204.129,63.828 C203.388,63.723 202.667,63.525 201.976,63.238 L202.316,63.381 C201.816,63.169 201.336,62.913 200.883,62.611 C200.762,62.531 200.644,62.447 200.527,62.36 C200.441,62.297 200.261,62.133 200.617,62.432 C200.57,62.392 200.52,62.354 200.472,62.315 C200.256,62.137 200.049,61.949 199.851,61.752 C199.661,61.561 199.48,61.362 199.308,61.155 C199.278,61.119 199.176,61.031 199.171,60.986 C199.178,61.049 199.406,61.297 199.242,61.076 C199.162,60.968 199.084,60.857 199.009,60.745 C198.7,60.286 198.438,59.797 198.222,59.287 L198.365,59.627 C198.077,58.936 197.88,58.215 197.775,57.474 L197.826,57.852 C197.773,57.459 197.747,57.064 197.745,56.667 C197.742,55.923 197.093,55.21 196.323,55.245 C195.555,55.279 194.897,55.87 194.9,56.667 C194.908,58.697 195.522,60.758 196.712,62.411 C197.943,64.121 199.595,65.389 201.572,66.12 C205.404,67.538 210,66.296 212.595,63.143 C213.969,61.473 214.781,59.491 214.946,57.331 C215.1,55.315 214.583,53.222 213.537,51.495 C212.515,49.807 210.972,48.379 209.165,47.572 C208.134,47.111 207.111,46.833 205.991,46.696 C204.949,46.568 203.889,46.644 202.861,46.85 C198.929,47.635 195.659,51.002 195.051,54.975 C194.965,55.537 194.902,56.099 194.9,56.667 C194.897,57.411 195.557,58.124 196.323,58.089 C197.096,58.055 197.742,57.465 197.745,56.667 z" fill="#222021"/>
    </g>
    <g>
      <path d="M139.427,59.852 C141.182,54.615 180.787,48.935 188.57,61.021 C196.352,73.108 190.394,86.412 179.392,90.188 C168.39,93.964 156.281,91.13 146.806,82.383 C138.602,74.809 137.671,65.089 139.427,59.852 z" fill="#82BFDC"/>
      <path d="M140.798,60.23 C140.807,60.205 140.817,60.181 140.826,60.156 C140.87,60.029 140.614,60.604 140.721,60.408 C140.748,60.358 140.773,60.307 140.803,60.259 C140.834,60.207 140.87,60.159 140.904,60.109 C141.012,59.953 140.607,60.473 140.75,60.31 C140.772,60.286 140.792,60.26 140.814,60.235 C140.908,60.129 141.01,60.031 141.116,59.937 C141.174,59.886 141.234,59.837 141.294,59.788 C141.456,59.657 140.922,60.068 141.119,59.924 C141.153,59.9 141.186,59.875 141.22,59.85 C141.526,59.631 141.851,59.44 142.183,59.264 C142.374,59.163 142.567,59.067 142.763,58.976 C142.866,58.927 142.971,58.879 143.076,58.833 C143.129,58.809 143.184,58.786 143.238,58.762 C143.256,58.754 143.274,58.747 143.293,58.739 C143.513,58.643 142.917,58.895 143.092,58.823 C145.345,57.898 147.724,57.293 150.105,56.802 C151.774,56.459 153.457,56.181 155.146,55.954 L154.768,56.005 C157.264,55.671 159.775,55.448 162.291,55.336 C164.854,55.223 167.424,55.225 169.985,55.377 C171.386,55.46 172.785,55.589 174.176,55.775 L173.798,55.724 C175.401,55.941 176.995,56.232 178.562,56.636 C179.293,56.825 180.017,57.039 180.732,57.284 C181.071,57.4 181.408,57.523 181.742,57.655 C181.905,57.719 182.067,57.788 182.23,57.853 C182.193,57.838 181.841,57.687 182.043,57.775 C182.081,57.791 182.12,57.807 182.158,57.824 C182.246,57.863 182.334,57.902 182.422,57.942 C183.027,58.216 183.619,58.521 184.189,58.863 C184.467,59.029 184.739,59.204 185.005,59.389 C185.133,59.477 185.258,59.568 185.383,59.661 C185.412,59.683 185.441,59.706 185.471,59.728 C185.62,59.839 185.154,59.479 185.299,59.595 C185.361,59.645 185.424,59.693 185.485,59.743 C185.949,60.121 186.384,60.534 186.777,60.985 C186.872,61.094 186.964,61.205 187.054,61.317 C187.231,61.536 186.812,60.995 186.979,61.22 C187.027,61.284 187.075,61.349 187.121,61.414 C187.408,61.817 187.663,62.243 187.913,62.67 C188.242,63.235 188.549,63.813 188.83,64.404 C188.902,64.554 188.972,64.704 189.04,64.856 C189.071,64.925 189.102,64.994 189.133,65.064 C189.157,65.121 189.279,65.406 189.18,65.173 C189.083,64.942 189.188,65.193 189.21,65.246 C189.238,65.316 189.266,65.385 189.294,65.455 C189.353,65.605 189.411,65.756 189.467,65.907 C189.888,67.044 190.212,68.216 190.426,69.409 C190.478,69.694 190.522,69.981 190.562,70.268 L190.511,69.89 C190.735,71.58 190.739,73.292 190.512,74.982 L190.563,74.604 C190.448,75.441 190.278,76.271 190.052,77.086 C189.939,77.489 189.814,77.888 189.675,78.283 C189.607,78.474 189.537,78.665 189.463,78.854 C189.428,78.943 189.392,79.032 189.356,79.121 C189.337,79.169 189.322,79.226 189.295,79.269 L189.389,79.047 C189.372,79.086 189.355,79.125 189.338,79.165 C189.009,79.924 188.628,80.662 188.201,81.371 C187.993,81.716 187.775,82.054 187.545,82.384 C187.437,82.54 187.326,82.695 187.213,82.848 C187.15,82.933 187.085,83.017 187.022,83.102 C187.327,82.691 187.065,83.044 186.989,83.139 C186.479,83.775 185.928,84.378 185.339,84.943 C185.033,85.237 184.716,85.521 184.391,85.794 C184.244,85.917 184.095,86.038 183.944,86.157 C183.672,86.371 184.195,85.969 183.954,86.149 C183.86,86.219 183.766,86.29 183.671,86.359 C182.994,86.852 182.284,87.3 181.548,87.699 C181.186,87.895 180.817,88.08 180.443,88.252 C180.344,88.297 180.244,88.342 180.145,88.386 C180.105,88.403 180.065,88.42 180.025,88.438 C179.793,88.54 180.32,88.315 180.153,88.384 C179.95,88.468 179.747,88.549 179.542,88.626 C177.509,89.392 175.366,89.897 173.215,90.187 L173.593,90.137 C170.926,90.49 168.222,90.482 165.556,90.124 L165.934,90.175 C163.479,89.839 161.069,89.212 158.757,88.32 C158.469,88.209 158.185,88.087 157.897,87.975 C158.358,88.155 157.844,87.951 157.738,87.905 C157.572,87.832 157.406,87.758 157.241,87.683 C156.671,87.423 156.108,87.147 155.553,86.856 C154.398,86.25 153.277,85.58 152.194,84.853 C151.63,84.474 151.076,84.079 150.533,83.67 C150.444,83.603 150.008,83.24 150.363,83.542 C150.259,83.453 150.146,83.372 150.038,83.286 C149.756,83.062 149.477,82.834 149.201,82.602 C148.149,81.717 147.138,80.783 146.207,79.771 C145.762,79.287 145.334,78.787 144.925,78.271 C144.884,78.22 144.844,78.168 144.803,78.117 C144.622,77.887 145.01,78.389 144.834,78.156 C144.741,78.032 144.647,77.907 144.555,77.782 C144.359,77.514 144.168,77.242 143.982,76.966 C143.313,75.974 142.714,74.934 142.196,73.855 C142.054,73.56 141.918,73.263 141.789,72.963 C141.748,72.869 141.648,72.617 141.824,73.048 C141.798,72.984 141.771,72.92 141.745,72.857 C141.685,72.709 141.626,72.561 141.569,72.412 C141.346,71.831 141.145,71.241 140.969,70.644 C140.643,69.539 140.4,68.411 140.244,67.271 L140.295,67.649 C140.064,65.917 140.032,64.156 140.265,62.422 L140.214,62.8 C140.334,61.928 140.52,61.066 140.798,60.23 C141.033,59.524 140.526,58.645 139.805,58.48 C139.02,58.302 138.307,58.718 138.055,59.474 C137.332,61.645 137.15,64.027 137.311,66.299 C137.524,69.294 138.309,72.183 139.559,74.908 C140.994,78.034 143.109,80.861 145.612,83.213 C148.24,85.684 151.217,87.832 154.432,89.475 C157.472,91.029 160.735,92.175 164.103,92.753 C167.507,93.337 170.927,93.379 174.342,92.879 C177.471,92.42 180.625,91.514 183.38,89.935 C185.963,88.454 188.173,86.401 189.892,83.976 C191.549,81.639 192.7,78.893 193.196,76.071 C193.742,72.956 193.585,69.761 192.721,66.715 C192.25,65.056 191.577,63.443 190.758,61.927 C190.181,60.859 189.541,59.818 188.732,58.908 C187.593,57.627 186.129,56.618 184.608,55.845 C182.847,54.951 180.963,54.303 179.05,53.825 C176.893,53.287 174.684,52.954 172.474,52.73 C170.225,52.503 167.964,52.409 165.705,52.413 C163.422,52.416 161.139,52.52 158.864,52.713 C156.601,52.905 154.342,53.184 152.101,53.552 C150.208,53.863 148.325,54.242 146.47,54.729 C144.886,55.144 143.335,55.648 141.829,56.294 C140.795,56.738 139.736,57.283 138.932,58.087 C138.533,58.486 138.237,58.941 138.055,59.474 C137.815,60.179 138.33,61.06 139.048,61.224 C139.838,61.403 140.541,60.985 140.798,60.23 z" fill="#222021"/>
    </g>
    <g>
      <path d="M218.502,58.174 C218.502,63.178 222.932,67.146 229.372,67.146 C235.811,67.146 246.708,59.322 246.708,58.42 C246.708,57.518 232.446,49.432 227.77,49.432 C223.094,49.432 218.502,53.17 218.502,58.174 z" fill="#FADF3B"/>
      <path d="M217.08,58.174 C217.085,59.724 217.462,61.239 218.171,62.615 C218.877,63.983 219.931,65.111 221.144,66.04 C222.381,66.985 223.846,67.649 225.345,68.053 C226.231,68.292 227.146,68.432 228.059,68.512 C228.758,68.573 229.465,68.594 230.165,68.532 C232.996,68.28 235.694,67.184 238.223,65.941 C240.545,64.8 242.783,63.459 244.881,61.944 C245.656,61.384 246.435,60.807 247.135,60.153 C247.747,59.582 248.294,58.892 248.07,57.995 C247.892,57.284 247.142,56.79 246.594,56.389 C245.944,55.913 245.259,55.484 244.571,55.065 C242.562,53.842 240.485,52.726 238.375,51.687 C236.117,50.575 233.802,49.518 231.405,48.738 C230.436,48.422 229.459,48.18 228.446,48.056 C227.952,47.996 227.459,48.002 226.963,48.047 C226.096,48.125 225.236,48.281 224.411,48.562 C221.148,49.669 218.386,52.247 217.433,55.609 C217.199,56.437 217.084,57.314 217.08,58.174 C217.077,58.918 217.736,59.631 218.502,59.596 C219.276,59.562 219.921,58.971 219.925,58.174 C219.926,57.811 219.95,57.449 219.998,57.089 L219.947,57.467 C220.044,56.77 220.23,56.094 220.499,55.444 L220.356,55.784 C220.582,55.249 220.861,54.738 221.19,54.259 C221.275,54.135 221.365,54.015 221.454,53.895 C221.138,54.32 221.475,53.878 221.556,53.783 C221.745,53.564 221.944,53.353 222.153,53.152 C222.361,52.951 222.58,52.759 222.806,52.577 C222.839,52.55 222.873,52.524 222.907,52.497 L222.722,52.641 C222.771,52.581 222.866,52.533 222.929,52.488 C223.043,52.406 223.158,52.327 223.276,52.25 C223.772,51.925 224.297,51.647 224.842,51.414 L224.503,51.558 C225.279,51.232 226.091,51.006 226.925,50.888 L226.546,50.939 C227.199,50.852 227.856,50.823 228.51,50.909 L228.131,50.858 C229.552,51.052 230.935,51.546 232.266,52.059 C232.732,52.239 233.195,52.427 233.655,52.621 L233.315,52.478 C235.567,53.431 237.764,54.518 239.915,55.681 C241.605,56.595 243.299,57.542 244.877,58.644 C245.016,58.742 245.154,58.841 245.29,58.943 C245.539,59.131 244.939,58.665 245.202,58.876 C245.249,58.913 245.295,58.952 245.341,58.991 C245.421,59.059 245.496,59.131 245.569,59.205 C245.582,59.218 245.593,59.234 245.606,59.247 C245.729,59.37 245.374,58.939 245.424,59.011 C245.44,59.034 245.456,59.058 245.468,59.085 L245.324,58.745 C245.33,58.759 245.334,58.773 245.336,58.787 L245.285,58.409 C245.286,58.42 245.286,58.43 245.284,58.44 L245.335,58.062 C245.332,58.081 245.326,58.099 245.319,58.117 L245.462,57.777 C245.439,57.831 245.404,57.875 245.375,57.924 C245.324,58.011 245.68,57.554 245.524,57.73 C245.493,57.764 245.464,57.799 245.433,57.833 C245.275,58.005 245.103,58.164 244.929,58.319 C244.691,58.529 244.446,58.73 244.197,58.927 C244.132,58.978 244.066,59.029 244.001,59.08 C244.46,58.722 244.133,58.978 244.018,59.065 C243.852,59.19 243.685,59.313 243.517,59.435 C241.866,60.634 240.124,61.715 238.331,62.687 C237.208,63.295 236.06,63.859 234.884,64.356 L235.223,64.212 C233.637,64.879 231.982,65.45 230.271,65.684 L230.649,65.633 C229.579,65.774 228.495,65.737 227.426,65.598 L227.804,65.648 C226.684,65.497 225.587,65.214 224.544,64.775 L224.884,64.918 C224.32,64.677 223.774,64.394 223.258,64.061 C223.124,63.975 222.993,63.886 222.864,63.793 C222.8,63.748 222.737,63.701 222.674,63.654 C222.48,63.512 222.952,63.875 222.776,63.734 C222.542,63.546 222.315,63.352 222.099,63.145 C221.894,62.948 221.698,62.742 221.512,62.527 C221.421,62.42 221.333,62.31 221.245,62.201 C221.592,62.63 221.264,62.219 221.186,62.106 C220.864,61.643 220.592,61.148 220.37,60.629 L220.513,60.969 C220.232,60.299 220.042,59.599 219.944,58.879 L219.995,59.257 C219.949,58.898 219.926,58.537 219.925,58.174 C219.922,57.43 219.272,56.717 218.502,56.752 C217.734,56.786 217.077,57.377 217.08,58.174 z" fill="#222021"/>
    </g>
  </g>
  <g id="Layer_2">
    <path d="M54.908,128.46 L91.658,128.46" fill-opacity="0" stroke="#8A8B8A" stroke-width="5"/>
    <path d="M65.882,147.84 L91.658,147.84" fill-opacity="0" stroke="#8A8B8A" stroke-width="5"/>
    <path d="M77.111,167.221 L91.658,167.221" fill-opacity="0" stroke="#8A8B8A" stroke-width="5"/>
  </g>
  <g id="Layer_3">
    <text transform="matrix(1, 0, 0, 1, 214.676, 145.798)">
      <tspan x="-120.188" y="26.023" font-family="BeVietnamPro-SemiBold" font-size="72" kerning="-2" fill="#8A8B8A">Harrier</tspan>
    </text>
  </g>
</svg>
